# xmcd CD database file
#
# Track frame offsets:
#	150
#	21956
#	44071
#	64510
#	83614
#	104705
#	121396
#	138307
#	156527
#	181145
#	197238
#	221412
#	238394
#	256272
#	274820
#	293346
#
# Disc length: 4154 seconds
#
# Revision: 1
# Processed by: cddbd v1.5.2PL0 Copyright (c) Steve Scherf et al.
# Submitted via: CDex 1.51
#
DISCID=f0103810
DTITLE=Kid Carlos Band - Cannonball
DYEAR=2018
DGENRE=Blues
TTITLE0=Going Down
TTITLE1=I'm Tore Down
TTITLE2=Hideaway
TTITLE3=Only Getting Second Best
TTITLE4=Big Legget Woman
TTITLE5=In The Palace Of The King
TTITLE6=I'd Rather Be Blilnd
TTITLE7=Come On
TTITLE8=San-ho-zay/sen-sa-shum
TTITLE9=Texas Flyer
TTITLE10=Same Old Blues
TTITLE11=LonesomeWhistle Blues
TTITLE12=Pack It Up
TTITLE13=Side Tracked
TTITLE14=Woman Across The River
TTITLE15=Guitar Boogie
EXTD=YEAR: 2018
EXTT0=
EXTT1=
EXTT2=
EXTT3=
EXTT4=
EXTT5=
EXTT6=
EXTT7=
EXTT8=
EXTT9=
EXTT10=
EXTT11=
EXTT12=
EXTT13=
EXTT14=
EXTT15=
PLAYORDER=
